<svg width="254" height="276" viewBox="0 0 254 276" fill="none" xmlns="http://www.w3.org/2000/svg">
<g filter="url(#filter0_ii_4044_15)">
<path d="M56.9746 66.0696C52.8464 85.2195 36.7238 133.108 12.7349 121.614C-4.00176 113.598 -7.30517 88.2883 21.7218 48.344C21.7218 48.344 34.7024 64.5554 56.9746 66.0696Z" fill="#F5F5FA"/>
<path d="M64.5046 49.9929L33.2993 30.3263C33.2993 30.3263 46.7953 -1.62472 66.3917 0.0647131C85.9835 1.75415 90.9678 22.6295 64.5091 49.9929L64.5046 49.9929Z" fill="#F5F5FA"/>
</g>
<g filter="url(#filter1_ii_4044_15)">
<path d="M211.322 271.002C184.738 271.748 189.322 221.435 193.277 202.252C214.26 209.924 232.68 200.388 232.68 200.388C243.103 248.694 229.866 270.485 211.327 271.001L211.322 271.002Z" fill="#F5F5FA"/>
<path d="M211.301 138.109C229.903 144.531 229.355 179.216 229.355 179.216L192.874 184.503C179.713 148.741 192.699 131.688 211.301 138.109Z" fill="#F5F5FA"/>
</g>
<defs>
<filter id="filter0_ii_4044_15" x="-8.99976" y="-8" width="102.739" height="135.373" filterUnits="userSpaceOnUse" color-interpolation-filters="sRGB">
<feFlood flood-opacity="0" result="BackgroundImageFix"/>
<feBlend mode="normal" in="SourceGraphic" in2="BackgroundImageFix" result="shape"/>
<feColorMatrix in="SourceAlpha" type="matrix" values="0 0 0 0 0 0 0 0 0 0 0 0 0 0 0 0 0 0 127 0" result="hardAlpha"/>
<feOffset dx="11" dy="4"/>
<feGaussianBlur stdDeviation="5.95"/>
<feComposite in2="hardAlpha" operator="arithmetic" k2="-1" k3="1"/>
<feColorMatrix type="matrix" values="0 0 0 0 1 0 0 0 0 1 0 0 0 0 1 0 0 0 0.25 0"/>
<feBlend mode="normal" in2="shape" result="effect1_innerShadow_4044_15"/>
<feColorMatrix in="SourceAlpha" type="matrix" values="0 0 0 0 0 0 0 0 0 0 0 0 0 0 0 0 0 0 127 0" result="hardAlpha"/>
<feOffset dx="-9" dy="-8"/>
<feGaussianBlur stdDeviation="6.55"/>
<feComposite in2="hardAlpha" operator="arithmetic" k2="-1" k3="1"/>
<feColorMatrix type="matrix" values="0 0 0 0 0 0 0 0 0 0 0 0 0 0 0 0 0 0 0.08 0"/>
<feBlend mode="normal" in2="effect1_innerShadow_4044_15" result="effect2_innerShadow_4044_15"/>
</filter>
<filter id="filter1_ii_4044_15" x="178.517" y="128.779" width="68.8335" height="146.231" filterUnits="userSpaceOnUse" color-interpolation-filters="sRGB">
<feFlood flood-opacity="0" result="BackgroundImageFix"/>
<feBlend mode="normal" in="SourceGraphic" in2="BackgroundImageFix" result="shape"/>
<feColorMatrix in="SourceAlpha" type="matrix" values="0 0 0 0 0 0 0 0 0 0 0 0 0 0 0 0 0 0 127 0" result="hardAlpha"/>
<feOffset dx="11" dy="4"/>
<feGaussianBlur stdDeviation="5.95"/>
<feComposite in2="hardAlpha" operator="arithmetic" k2="-1" k3="1"/>
<feColorMatrix type="matrix" values="0 0 0 0 1 0 0 0 0 1 0 0 0 0 1 0 0 0 0.25 0"/>
<feBlend mode="normal" in2="shape" result="effect1_innerShadow_4044_15"/>
<feColorMatrix in="SourceAlpha" type="matrix" values="0 0 0 0 0 0 0 0 0 0 0 0 0 0 0 0 0 0 127 0" result="hardAlpha"/>
<feOffset dx="-9" dy="-8"/>
<feGaussianBlur stdDeviation="6.55"/>
<feComposite in2="hardAlpha" operator="arithmetic" k2="-1" k3="1"/>
<feColorMatrix type="matrix" values="0 0 0 0 0 0 0 0 0 0 0 0 0 0 0 0 0 0 0.08 0"/>
<feBlend mode="normal" in2="effect1_innerShadow_4044_15" result="effect2_innerShadow_4044_15"/>
</filter>
</defs>
</svg>
